<?xml version="1.0" standalone="no"?>
<!DOCTYPE svg PUBLIC "-//W3C//DTD SVG 20010904//EN"
 "http://www.w3.org/TR/2001/REC-SVG-20010904/DTD/svg10.dtd">
<svg version="1.0" xmlns="http://www.w3.org/2000/svg"
 width="1024.000000pt" height="1024.000000pt" viewBox="0 0 1024.000000 1024.000000"
 preserveAspectRatio="xMidYMid meet">

<g transform="translate(0.000000,1024.000000) scale(0.100000,-0.100000)"
fill="#000000" stroke="none">
<path d="M2705 8620 c-150 -18 -252 -67 -361 -175 -59 -58 -91 -100 -117 -151
-72 -143 -67 -7 -67 -1882 0 -1076 4 -1709 10 -1743 5 -30 28 -92 51 -138 77
-157 227 -277 389 -312 40 -9 365 -12 1220 -13 l1165 -1 0 -180 0 -180 -1180
-2 c-857 -1 -1195 -5 -1235 -14 -95 -20 -159 -57 -245 -144 -89 -89 -134 -167
-160 -276 -22 -95 -22 -1113 0 -1208 46 -194 193 -349 395 -417 53 -18 130
-19 1850 -22 987 -2 1810 0 1828 3 60 11 72 36 72 151 0 85 -3 106 -19 125
l-19 24 -484 5 -483 5 -3 96 c-2 88 -5 98 -28 120 l-26 24 -836 3 c-460 1
-852 0 -871 -3 -18 -4 -44 -17 -57 -30 -22 -22 -24 -33 -24 -114 l0 -90 -33
-6 c-19 -4 -193 -5 -388 -3 -308 3 -359 6 -392 21 -69 30 -115 75 -149 145
l-33 67 0 510 c0 505 0 510 22 557 27 59 84 115 143 142 l45 21 1746 3 1746 2
27 74 c15 40 47 107 71 149 25 42 45 77 45 79 0 2 -223 2 -495 0 l-495 -3 2
183 3 183 727 0 c715 0 727 0 742 20 12 15 15 49 16 146 0 109 -2 128 -18 142
-17 15 -181 17 -2058 19 -1972 3 -2040 4 -2074 22 -74 39 -119 86 -156 161
l-37 75 1 1609 c0 885 3 1624 7 1642 20 92 100 190 190 231 l50 23 2425 3
c2213 2 2429 1 2475 -14 100 -32 181 -113 221 -219 18 -48 19 -113 21 -1620 2
-902 -1 -1597 -7 -1633 -12 -86 -41 -142 -111 -211 l-59 -59 0 -168 0 -167 38
6 c20 4 75 25 121 48 150 74 267 216 310 379 l21 78 -2 1713 -3 1714 -23 62
c-49 129 -159 263 -273 331 -82 48 -163 73 -269 83 -114 10 -4819 9 -4905 -1z"/>
<path d="M4910 8021 c-125 -6 -139 -8 -188 -35 -61 -34 -111 -86 -143 -148
-19 -36 -23 -64 -27 -165 -2 -67 -2 -134 2 -148 l6 -25 251 0 250 0 24 -25
c30 -29 32 -58 5 -85 -19 -19 -33 -20 -460 -20 -474 0 -505 -3 -608 -53 -178
-86 -282 -279 -282 -522 0 -211 42 -329 157 -445 38 -37 87 -77 110 -89 101
-51 98 -51 960 -51 790 0 803 0 823 -20 25 -25 26 -62 2 -83 -15 -14 -74 -16
-487 -20 -526 -4 -519 -3 -633 -77 -97 -62 -164 -160 -197 -285 -21 -81 -21
-446 0 -524 37 -139 131 -256 252 -314 l68 -32 346 1 346 2 60 27 c73 32 134
92 164 160 19 42 23 74 27 195 4 135 3 147 -16 170 l-20 25 -258 3 c-221 3
-261 5 -276 19 -24 21 -23 68 2 93 19 19 33 20 470 20 290 0 468 4 502 11 124
26 258 131 317 247 49 98 61 159 61 320 0 157 -13 229 -57 316 -33 65 -139
175 -201 209 -106 58 -95 57 -968 57 -784 0 -801 0 -819 20 -22 24 -23 67 -1
88 15 15 68 18 509 22 457 5 495 6 537 24 136 58 229 166 265 306 14 53 16
102 13 270 -4 184 -6 211 -27 262 -47 121 -159 237 -263 276 -44 16 -88 20
-258 24 -113 3 -266 2 -340 -1z m11 -174 c46 -31 68 -91 48 -132 -18 -38 -74
-75 -113 -75 -84 1 -142 96 -102 168 18 33 66 62 102 62 17 0 46 -10 65 -23z
m594 -2601 c32 -21 58 -81 50 -117 -10 -44 -51 -87 -90 -95 -103 -19 -178 82
-131 175 29 56 114 74 171 37z"/>
<path d="M7233 4949 c-43 -13 -80 -60 -88 -114 -4 -24 -6 -215 -4 -425 2 -209
3 -380 2 -380 -23 0 -164 -34 -208 -51 -254 -95 -473 -351 -526 -614 -11 -53
-14 -163 -14 -455 0 -433 2 -449 76 -608 114 -247 329 -425 601 -499 99 -28
327 -25 437 5 98 27 209 76 276 122 139 95 275 267 334 418 56 146 63 221 59
621 -4 353 -4 357 -31 444 -15 49 -39 112 -54 140 -119 236 -344 412 -597 466
l-81 18 -5 421 -5 421 -29 30 c-17 17 -46 36 -65 41 -41 11 -35 11 -78 -1z
m-91 -1471 c3 -248 5 -287 21 -315 46 -86 186 -82 232 6 12 25 15 77 15 311 0
154 3 280 8 280 23 0 111 -34 165 -62 76 -41 202 -163 244 -238 64 -113 76
-167 81 -366 2 -107 0 -189 -5 -199 -9 -15 -56 -17 -626 -19 l-617 -2 0 185
c0 215 11 277 68 385 51 98 163 210 261 260 70 37 112 53 138 55 9 1 13 -70
15 -281z"/>
<path d="M2958 3323 c-140 -5 -141 -6 -136 -166 2 -78 7 -119 17 -130 11 -14
35 -17 141 -17 165 0 160 -5 160 162 0 89 -4 129 -13 136 -18 16 -51 18 -169
15z"/>
<path d="M3510 3323 c-84 -3 -108 -7 -117 -20 -9 -11 -13 -57 -13 -138 0 -159
-5 -155 162 -155 162 0 158 -4 158 156 0 65 -4 124 -8 130 -10 15 -48 34 -64
32 -7 -1 -60 -4 -118 -5z"/>
<path d="M3966 3315 c-19 -10 -21 -21 -24 -139 -4 -171 -8 -166 153 -166 165
0 159 -6 156 156 -1 89 -6 133 -15 142 -16 16 -240 22 -270 7z"/>
<path d="M4528 3321 c-32 -9 -38 -36 -38 -155 1 -85 5 -126 14 -138 11 -16 31
-18 144 -18 165 0 162 -3 162 156 0 157 -1 159 -154 159 -63 0 -121 -2 -128
-4z"/>
<path d="M5145 3321 c-72 -5 -81 -8 -93 -31 -17 -34 -13 -240 7 -263 11 -14
35 -17 141 -17 165 0 160 -4 160 156 0 65 -4 124 -8 131 -4 6 -20 17 -35 22
-29 11 -36 11 -172 2z"/>
<path d="M5650 3322 c-43 -6 -50 -26 -50 -157 0 -158 -3 -155 154 -155 64 0
126 5 137 10 17 10 19 22 19 144 0 112 -3 136 -17 147 -15 13 -172 20 -243 11z"/>
<path d="M2842 2792 c-23 -22 -24 -28 -20 -143 4 -159 2 -156 167 -153 78 1
127 6 136 14 23 19 22 272 -2 291 -12 10 -49 14 -137 14 -113 0 -123 -2 -144
-23z"/>
<path d="M3420 2812 c-34 -10 -40 -35 -40 -157 0 -167 -6 -160 162 -157 109 3
135 6 146 19 13 18 17 249 4 269 -17 25 -54 33 -153 32 -57 0 -111 -3 -119 -6z"/>
<path d="M3970 2808 c-25 -13 -25 -16 -28 -147 -2 -90 1 -138 9 -147 16 -19
271 -20 287 -1 6 6 12 69 14 139 4 165 7 162 -145 166 -78 2 -120 -1 -137 -10z"/>
<path d="M4509 2802 c-17 -12 -19 -27 -19 -141 0 -91 4 -132 13 -146 12 -16
28 -18 143 -16 167 2 164 -1 164 161 0 156 1 155 -162 155 -83 0 -126 -4 -139
-13z"/>
<path d="M5075 2808 c-32 -18 -35 -28 -35 -148 0 -163 -3 -160 159 -160 166 0
161 -5 161 156 0 84 -4 126 -13 138 -11 15 -32 19 -133 22 -75 2 -126 -1 -139
-8z"/>
<path d="M5637 2811 c-31 -9 -37 -36 -37 -162 0 -163 -5 -158 163 -152 72 3
127 10 134 17 7 7 13 57 14 138 3 102 0 131 -11 142 -11 11 -48 15 -133 18
-64 2 -123 1 -130 -1z"/>
</g>
</svg>
