<?xml version="1.0" standalone="no"?>
<!DOCTYPE svg PUBLIC "-//W3C//DTD SVG 20010904//EN"
 "http://www.w3.org/TR/2001/REC-SVG-20010904/DTD/svg10.dtd">
<svg version="1.0" xmlns="http://www.w3.org/2000/svg"
 width="1024.000000pt" height="1024.000000pt" viewBox="0 0 1024.000000 1024.000000"
 preserveAspectRatio="xMidYMid meet">

<g transform="translate(0.000000,1024.000000) scale(0.100000,-0.100000)"
fill="#000000" stroke="none">
<path d="M6265 9214 c-16 -2 -84 -11 -150 -20 -419 -54 -821 -201 -1270 -464
l-150 -88 -150 -5 c-164 -5 -267 -27 -422 -86 -93 -36 -228 -118 -310 -188
-137 -117 -258 -308 -302 -478 -68 -256 -45 -498 71 -768 28 -65 49 -119 47
-121 -2 -2 -35 -21 -74 -43 -242 -139 -399 -181 -610 -161 -152 13 -276 61
-398 150 -135 100 -208 213 -234 366 -8 48 -21 99 -29 115 -48 91 -200 86
-240 -8 -31 -75 -7 -256 50 -380 18 -38 56 -101 85 -139 29 -38 49 -72 44 -76
-4 -3 -32 -26 -61 -49 -100 -82 -194 -231 -229 -363 -21 -82 -13 -128 33 -173
30 -30 41 -35 83 -35 72 0 108 29 147 118 58 136 119 214 216 276 26 17 29 17
61 -2 107 -67 274 -131 397 -153 84 -14 267 -14 350 1 104 18 227 58 337 110
l101 48 17 -62 c105 -388 324 -750 668 -1103 l139 -143 -20 -32 c-10 -18 -45
-73 -76 -123 -231 -364 -429 -921 -453 -1273 l-6 -92 165 0 164 0 12 98 c18
139 28 171 60 183 43 17 240 47 352 54 168 11 434 -20 695 -81 162 -38 208
-41 234 -15 30 30 35 64 16 104 -20 42 -35 49 -184 87 -377 95 -735 119 -1009
67 l-74 -14 7 36 c20 112 170 478 210 511 19 16 148 38 299 51 233 20 538 -17
823 -100 141 -41 143 -41 178 -27 64 27 68 128 7 160 -61 31 -348 106 -527
138 -109 19 -164 22 -340 22 -115 -1 -232 -6 -260 -12 -27 -6 -52 -9 -54 -7
-10 11 238 384 296 447 62 66 488 98 728 54 127 -22 274 -59 393 -97 123 -39
162 -38 196 2 45 53 25 115 -46 144 -278 112 -705 181 -973 157 -66 -6 -122
-9 -124 -7 -6 7 181 220 287 328 l96 97 325 0 c423 0 584 19 816 95 109 35
291 110 314 129 12 9 13 7 7 -9 -5 -11 -15 -40 -24 -65 -26 -76 -146 -309
-233 -456 -45 -76 -175 -278 -289 -449 -268 -401 -325 -494 -430 -700 -94
-184 -150 -320 -205 -496 -39 -124 -85 -336 -85 -393 l0 -36 278 0 279 0 22
137 c23 151 63 320 106 455 l28 87 156 87 c717 400 1262 847 1605 1317 598
821 620 1774 58 2517 -78 102 -249 278 -352 360 -302 240 -638 387 -1055 461
-94 17 -170 22 -350 24 -126 2 -243 1 -260 -1z m506 -507 c187 -49 322 -128
459 -267 128 -130 225 -309 267 -490 20 -88 29 -373 14 -453 -33 -173 -111
-364 -209 -511 -64 -97 -258 -289 -363 -359 -147 -98 -305 -161 -516 -208 -91
-20 -136 -22 -633 -28 -547 -7 -898 -1 -1005 19 -160 30 -326 92 -451 169 -89
56 -212 156 -237 195 -17 25 -17 26 15 42 21 11 66 19 123 21 82 4 102 1 215
-32 401 -119 518 -127 889 -64 149 26 217 32 441 39 224 7 277 11 345 30 179
49 330 126 442 224 106 95 243 309 243 382 0 77 -55 134 -131 134 -64 0 -97
-29 -151 -133 -57 -112 -180 -236 -293 -294 -140 -72 -203 -84 -505 -93 -224
-7 -287 -13 -410 -36 -120 -23 -173 -27 -310 -28 -185 0 -189 1 -464 90 -189
62 -288 84 -379 84 -55 0 -179 -17 -247 -35 -23 -5 -29 0 -61 57 -82 146 -119
283 -119 447 0 130 16 210 59 305 86 189 232 322 447 404 94 35 219 59 369 68
132 7 195 27 327 99 209 114 384 171 561 182 l97 6 -39 -84 c-40 -85 -82 -189
-76 -189 2 0 33 18 70 41 179 109 416 212 587 255 149 38 200 43 373 40 132
-3 177 -8 256 -29z m1140 -704 l85 -72 53 -168 c29 -92 76 -237 103 -322 l50
-153 -36 -52 c-19 -28 -83 -109 -141 -180 -91 -111 -105 -133 -100 -155 4 -14
37 -104 75 -198 l68 -173 -42 -38 c-22 -20 -151 -103 -286 -184 -135 -81 -253
-153 -263 -160 -15 -11 -21 -41 -33 -158 -16 -165 -33 -302 -36 -305 -2 -2
-73 -43 -159 -93 -86 -49 -168 -97 -182 -107 -28 -18 -38 -6 -13 14 24 20 96
147 136 238 43 100 135 382 171 521 l24 93 50 28 c27 15 106 61 175 101 69 40
137 81 152 89 16 9 28 23 28 32 0 15 -83 243 -134 368 l-26 64 37 91 c20 50
44 118 53 151 l17 60 64 -127 c35 -71 66 -128 69 -127 5 0 34 35 148 181 l52
67 -106 205 c-93 181 -111 209 -147 234 -34 22 -42 34 -45 62 -8 104 -41 244
-88 365 -4 11 26 -12 67 -50 41 -39 113 -103 160 -142z m-3604 -1697 c180 -90
408 -144 652 -154 l155 -7 -67 -75 c-36 -41 -110 -134 -164 -207 -54 -72 -100
-132 -103 -132 -3 -1 -13 19 -24 44 -12 30 -20 82 -24 151 -6 126 14 111 -234
180 l-176 48 -54 90 c-58 98 -62 106 -54 106 3 0 45 -20 93 -44z"/>
<path d="M6012 8360 c-124 -26 -230 -111 -285 -228 -29 -61 -32 -76 -32 -162
1 -74 5 -107 23 -150 32 -81 108 -162 190 -202 62 -31 73 -33 172 -33 97 0
110 2 170 31 91 44 153 102 192 181 28 56 33 79 36 157 4 104 -14 169 -71 249
-87 122 -251 187 -395 157z m154 -192 c88 -87 29 -228 -94 -228 -82 0 -142 56
-142 133 0 85 61 140 148 134 45 -3 59 -9 88 -39z"/>
<path d="M3992 7940 c-53 -44 -76 -154 -51 -244 27 -96 119 -128 184 -63 98
98 48 328 -71 327 -23 -1 -48 -8 -62 -20z"/>
<path d="M4848 7933 c-43 -46 -52 -74 -52 -153 -1 -64 3 -82 27 -122 74 -126
216 -45 217 124 0 110 -49 178 -127 178 -30 0 -45 -7 -65 -27z"/>
<path d="M2548 4801 c-133 -43 -230 -139 -289 -286 l-24 -60 -3 -1474 c-3
-1611 -4 -1577 54 -1696 86 -175 284 -278 475 -246 175 29 303 136 358 299 21
61 21 69 21 1580 0 1339 -2 1525 -16 1577 -39 151 -158 271 -308 311 -72 19
-199 17 -268 -5z"/>
<path d="M7807 4809 c-138 -32 -254 -141 -308 -289 l-24 -65 0 -1540 0 -1540
23 -57 c71 -176 224 -279 417 -282 112 -1 199 26 283 88 107 79 163 180 182
328 14 111 14 2875 0 2973 -13 85 -62 193 -117 255 -50 55 -133 107 -205 126
-58 15 -192 17 -251 3z"/>
<path d="M1838 4481 c-117 -30 -213 -110 -272 -228 -34 -68 -52 -140 -73 -288
-16 -107 -18 -223 -17 -1035 0 -797 3 -931 17 -1036 28 -201 71 -304 167 -400
93 -93 187 -124 380 -124 l120 0 0 1565 0 1565 -127 -1 c-88 0 -149 -6 -195
-18z"/>
<path d="M8450 2935 l0 -1565 126 0 c193 0 297 34 393 130 86 86 127 194 158
415 14 104 17 238 17 1020 1 921 -2 1001 -39 1180 -31 149 -128 287 -237 338
-78 36 -144 47 -288 47 l-130 0 0 -1565z"/>
<path d="M3370 3140 l0 -490 1939 0 1939 1 6 22 c3 12 6 232 6 490 l0 467
-1945 0 -1945 0 0 -490z"/>
<path d="M9308 3582 l-48 -3 0 -586 0 -585 163 4 c157 3 164 4 228 34 81 38
133 90 168 163 26 56 26 58 29 341 4 378 -6 427 -110 529 -73 71 -131 93 -266
100 -64 3 -138 5 -164 3z"/>
<path d="M1090 3564 c-108 -29 -180 -90 -229 -194 l-26 -55 0 -325 c0 -315 1
-326 22 -373 70 -151 175 -207 391 -207 l112 0 0 585 0 585 -107 -1 c-61 0
-132 -7 -163 -15z"/>
<path d="M4085 2478 c4 -18 23 -79 42 -136 19 -57 33 -105 31 -106 -1 -2 -43
-11 -93 -20 -300 -59 -550 -189 -670 -351 -75 -100 -90 -149 -90 -296 0 -124
0 -125 37 -200 153 -307 511 -426 1443 -481 321 -18 1183 -15 1425 6 428 36
687 91 907 192 42 19 92 46 110 60 l33 25 0 429 0 430 -52 30 c-108 62 -323
135 -498 170 l-55 11 -64 112 c-35 62 -70 122 -78 135 -13 22 -14 22 -279 22
l-265 0 6 -22 c31 -102 137 -308 231 -448 215 -323 452 -523 778 -655 l79 -32
-26 -18 c-76 -49 -367 -141 -540 -170 -237 -39 -530 -37 -748 5 -234 45 -450
146 -653 305 -11 8 -17 17 -15 19 3 3 45 1 94 -4 184 -19 406 -6 566 35 161
41 407 142 452 186 48 48 32 122 -32 148 -25 11 -37 9 -93 -14 -185 -78 -274
-110 -378 -137 -206 -52 -460 -53 -704 -3 l-121 24 -54 58 c-68 74 -127 152
-174 229 -46 76 -143 279 -153 318 -7 27 -5 29 19 22 261 -65 716 -74 1027
-20 173 30 259 55 280 82 24 30 25 55 4 76 -14 14 -107 16 -876 16 l-860 0 7
-32z m-58 -570 c-44 -55 -69 -104 -65 -129 2 -14 32 -37 89 -70 83 -48 87 -49
130 -40 24 6 69 11 100 11 l55 0 29 61 c29 60 30 61 45 38 33 -50 136 -183
179 -231 l45 -50 -70 7 c-38 3 -81 8 -96 11 -22 4 -31 -1 -56 -38 -16 -24 -31
-50 -34 -58 -7 -18 -11 -10 -28 56 l-10 41 -91 7 -91 7 -76 -41 c-100 -54
-115 -68 -108 -101 l5 -26 -59 31 c-33 17 -60 36 -60 43 0 14 116 121 148 136
12 5 22 13 22 16 0 8 -159 98 -199 114 -17 6 -31 15 -31 20 0 15 57 91 97 129
35 34 153 108 162 102 2 -2 -12 -22 -32 -46z"/>
</g>
</svg>
