<?xml version="1.0" standalone="no"?>
<!DOCTYPE svg PUBLIC "-//W3C//DTD SVG 20010904//EN"
 "http://www.w3.org/TR/2001/REC-SVG-20010904/DTD/svg10.dtd">
<svg version="1.0" xmlns="http://www.w3.org/2000/svg"
 width="1024.000000pt" height="1024.000000pt" viewBox="0 0 1024.000000 1024.000000"
 preserveAspectRatio="xMidYMid meet">

<g transform="translate(0.000000,1024.000000) scale(0.100000,-0.100000)"
fill="#000000" stroke="none">
<path d="M0 5120 l0 -5120 5120 0 5120 0 0 5120 0 5120 -5120 0 -5120 0 0
-5120z m5555 3315 c744 -87 1455 -434 1996 -974 451 -452 767 -1015 929 -1660
85 -340 107 -770 56 -1126 -23 -161 -63 -345 -74 -345 -3 0 -28 15 -56 34 -28
19 -74 45 -101 57 -28 13 -51 24 -53 25 -2 1 8 69 22 150 95 567 35 1085 -191
1634 -245 593 -674 1113 -1208 1463 -450 294 -875 446 -1407 503 -205 22 -553
14 -753 -16 -701 -106 -1330 -427 -1795 -917 -259 -273 -435 -523 -590 -838
-206 -419 -304 -804 -317 -1245 -7 -233 5 -404 42 -603 13 -72 23 -132 22
-133 -1 -1 -31 -16 -67 -34 -36 -18 -84 -46 -107 -61 -48 -33 -41 -43 -72 96
-58 256 -80 545 -63 820 44 666 278 1292 689 1839 593 788 1472 1268 2469
1346 145 11 468 4 629 -15z m-155 -636 c204 -25 408 -83 554 -156 58 -29 88
-38 161 -44 175 -17 282 -66 362 -169 97 -123 116 -139 315 -272 113 -75 217
-151 233 -169 66 -79 93 -194 64 -276 -10 -31 -10 -31 -73 -26 -78 7 -104 -5
-211 -93 -118 -97 -162 -117 -260 -117 -166 -1 -495 121 -723 269 -86 56 -128
67 -156 39 -62 -62 -13 -118 209 -236 260 -139 504 -212 689 -208 l100 3 9
-28 c7 -21 6 -31 -4 -38 -8 -5 -74 -7 -154 -4 -120 4 -159 10 -274 41 -278 75
-589 208 -766 328 -88 60 -184 163 -227 243 -105 197 -89 389 47 559 55 69 19
87 -70 36 -68 -39 -130 -109 -168 -189 -30 -63 -32 -74 -32 -182 0 -63 4 -131
8 -151 l9 -35 -59 4 c-140 10 -276 -49 -398 -172 -90 -91 -133 -163 -167 -281
-33 -116 -33 -336 0 -449 63 -217 208 -424 462 -660 52 -48 250 -212 440 -364
592 -473 790 -701 905 -1044 69 -208 82 -443 35 -652 -73 -325 -285 -607 -580
-769 -341 -187 -798 -194 -1153 -16 -186 94 -364 246 -414 355 -55 120 -25
237 71 274 46 17 83 3 160 -64 117 -101 151 -125 229 -161 131 -61 215 -79
362 -79 150 -1 225 18 335 81 285 166 379 508 226 827 -99 206 -250 352 -773
749 -447 340 -615 480 -794 664 -263 270 -412 534 -481 857 -31 144 -30 407 1
553 93 439 372 798 801 1030 173 93 429 168 675 197 72 8 398 5 475 -5z m1610
-1264 c0 -13 -68 -103 -110 -145 -17 -17 -18 -17 -36 23 l-18 40 54 49 c37 33
62 48 82 48 18 0 28 -5 28 -15z m-133 -323 c58 -173 69 -198 132 -302 63 -102
86 -175 78 -243 -7 -57 -43 -124 -88 -161 l-31 -26 -29 20 c-15 12 -31 25 -34
30 -3 5 10 30 30 55 30 40 35 54 35 98 -1 54 -4 62 -96 237 -28 52 -54 106
-58 120 -6 24 -7 24 -20 -11 -7 -20 -35 -76 -61 -125 -98 -178 -97 -175 -92
-227 3 -33 14 -63 36 -93 17 -25 31 -46 31 -49 0 -2 -16 -16 -35 -31 l-36 -27
-35 34 c-105 102 -104 244 4 401 88 129 127 255 119 383 l-6 80 37 22 37 21
18 -34 c10 -19 38 -96 64 -172z m-3904 -1262 c80 -25 146 -85 183 -164 l24
-53 -2 -1064 -3 -1064 -24 -49 c-54 -109 -155 -170 -281 -171 -62 0 -85 5
-132 28 -70 34 -130 101 -158 173 -20 54 -20 74 -20 1088 0 1134 -2 1088 61
1174 50 68 156 120 250 121 20 1 66 -8 102 -19z m3965 -10 c60 -27 107 -72
140 -135 l27 -50 0 -1080 0 -1080 -23 -42 c-73 -138 -215 -198 -365 -154 -61
18 -146 93 -178 158 l-24 48 0 1070 c0 1067 0 1070 21 1116 71 154 245 218
402 149z m766 15 c100 -26 174 -95 215 -200 8 -22 11 -301 9 -1090 l-3 -1060
-27 -50 c-71 -133 -212 -197 -352 -160 -108 29 -200 120 -226 225 -7 32 -10
351 -8 1085 l3 1040 23 47 c42 85 119 146 209 167 57 13 93 13 157 -4z m-3959
-16 c52 -25 100 -76 127 -135 18 -41 18 -86 16 -1136 l-3 -1093 -29 -53 c-99
-177 -350 -177 -444 1 l-27 52 0 1100 0 1100 24 48 c26 53 81 105 132 123 56
20 153 17 204 -7z m-1415 -791 c44 -28 45 -41 45 -459 l0 -399 -26 -26 c-18
-18 -41 -28 -73 -31 -57 -7 -100 10 -129 51 -22 31 -22 34 -22 418 0 377 1
387 21 415 37 49 129 65 184 31z m5889 -3 c59 -30 61 -46 61 -455 0 -333 -2
-375 -17 -401 -20 -34 -68 -59 -112 -59 l-31 0 0 465 0 465 35 0 c20 0 49 -7
64 -15z m-6304 -87 l45 -12 0 -364 0 -363 -37 -16 c-25 -10 -58 -14 -100 -11
-77 5 -136 42 -173 108 -24 43 -25 52 -28 258 -4 244 4 285 69 348 60 59 134
76 224 52z m6759 -22 c92 -54 116 -125 115 -335 0 -198 -11 -275 -45 -324 -53
-76 -142 -103 -249 -76 -42 11 -44 13 -50 53 -3 22 -5 187 -3 366 l3 325 45
12 c66 18 130 11 184 -21z m-3573 -148 c147 -106 255 -290 261 -446 l3 -57
-632 -3 -633 -2 0 270 0 270 478 0 479 0 44 -32z m1370 -1623 c45 -40 143 -92
197 -103 l37 -8 -125 -62 c-465 -228 -959 -333 -1508 -319 -485 12 -905 111
-1309 308 -68 32 -123 63 -123 67 0 4 15 9 33 10 53 4 122 31 189 74 l63 41
40 -16 c22 -9 87 -34 145 -57 334 -130 634 -183 1045 -184 320 0 480 19 755
90 146 38 371 119 460 165 30 15 57 28 59 29 2 0 21 -16 42 -35z"/>
<path d="M6105 7256 c-58 -25 -115 -112 -115 -176 0 -67 50 -142 115 -171 77
-35 162 -15 222 54 77 88 46 235 -59 286 -50 24 -118 27 -163 7z"/>
<path d="M6555 6935 c-43 -43 -28 -126 27 -149 65 -28 133 16 133 85 0 33 -6
46 -28 65 -39 33 -99 33 -132 -1z"/>
</g>
</svg>
