<svg width="29" height="27" viewBox="0 0 29 27" fill="none" xmlns="http://www.w3.org/2000/svg">
<path d="M11.3953 0.911981C11.4443 0.91836 11.6529 0.947005 11.8554 0.97562C13.1407 1.14766 14.3724 1.6049 15.7467 2.41891L16.2058 2.69128L16.6662 2.70888C17.1695 2.72668 17.4853 2.79576 17.9602 2.97918C18.2451 3.09108 18.6583 3.3448 18.9089 3.5609C19.3277 3.92208 19.6962 4.51017 19.8288 5.03265C20.0336 5.81946 19.9594 6.56194 19.5993 7.38897C19.5124 7.58807 19.4471 7.7535 19.4532 7.75967C19.4593 7.76584 19.5603 7.82466 19.6797 7.89277C20.4205 8.32306 20.9017 8.45434 21.5497 8.39611C22.0165 8.35848 22.3978 8.21301 22.7736 7.94165C23.1895 7.63672 23.4153 7.29096 23.4974 6.82172C23.5226 6.6745 23.5633 6.51815 23.5881 6.46916C23.7368 6.19056 24.2033 6.20818 24.3247 6.49732C24.4187 6.72799 24.3423 7.28321 24.1655 7.66298C24.1097 7.77935 23.9921 7.97216 23.9025 8.08837C23.8129 8.20457 23.751 8.30864 23.7663 8.32099C23.7785 8.33026 23.8641 8.40128 23.9528 8.47231C24.2585 8.72551 24.5448 9.18427 24.6503 9.58997C24.7135 9.84199 24.6883 9.98307 24.5464 10.1205C24.4539 10.2121 24.42 10.2273 24.2911 10.2267C24.0701 10.2256 23.96 10.1361 23.8417 9.86229C23.6657 9.44396 23.4796 9.20363 23.1828 9.01186C23.1032 8.95929 23.094 8.95925 22.9955 9.01709C22.6661 9.22114 22.1525 9.41509 21.7746 9.48077C21.5166 9.52248 20.9549 9.51974 20.7003 9.47245C20.3814 9.41564 20.0044 9.29102 19.6675 9.12975L19.3582 8.9809L19.3051 9.17096C18.977 10.3604 18.2994 11.4682 17.2382 12.5466L16.8094 12.9835L16.8703 13.082C16.9007 13.1374 17.0073 13.3067 17.1017 13.4607C17.8053 14.5814 18.4047 16.2941 18.4731 17.375L18.4901 17.6574L17.9837 17.655L17.4803 17.6525L17.4449 17.3515C17.3917 16.9246 17.3615 16.8262 17.2635 16.7889C17.1317 16.7361 16.5275 16.641 16.1838 16.6179C15.6683 16.5816 14.8514 16.6727 14.0493 16.8561C13.5515 16.9703 13.4102 16.9788 13.3308 16.8986C13.2392 16.8061 13.2243 16.7016 13.2833 16.5791C13.3453 16.4505 13.3914 16.4293 13.8494 16.3148C15.008 16.0289 16.1072 15.9606 16.9475 16.1243L17.1744 16.1684L17.1535 16.0578C17.0938 15.7137 16.6388 14.588 16.5165 14.4861C16.4585 14.4367 16.0628 14.3673 15.5995 14.3251C14.8846 14.2602 13.9479 14.3692 13.0718 14.6197C12.6384 14.7434 12.6323 14.7434 12.525 14.6999C12.329 14.6161 12.3182 14.306 12.506 14.2087C12.6937 14.1145 13.5757 13.8885 14.1257 13.793C14.4605 13.7363 14.6294 13.7279 15.1696 13.7306C15.5226 13.7354 15.8817 13.7525 15.9675 13.7713C16.0503 13.7901 16.127 13.7997 16.1332 13.7936C16.164 13.76 15.4084 12.6113 15.2313 12.4171C15.042 12.2136 13.7348 12.109 12.9975 12.2404C12.6073 12.306 12.1556 12.4174 11.7897 12.5323C11.4116 12.6501 11.2919 12.6465 11.1881 12.5232C11.0508 12.3598 11.1131 12.1698 11.3315 12.0819C12.1865 11.7423 13.4982 11.5369 14.3205 11.6146C14.523 11.634 14.6948 11.644 14.701 11.6379C14.7195 11.6165 14.1487 10.9599 13.825 10.6268L13.5317 10.3276L12.5341 10.3227C11.2357 10.3164 10.7418 10.2557 10.0309 10.0189C9.6968 9.90983 9.13928 9.67689 9.06896 9.61823C9.03226 9.59042 9.02916 9.59654 9.04734 9.64575C9.06252 9.67959 9.09278 9.76875 9.12003 9.84562C9.1987 10.0793 9.56355 10.7963 9.82839 11.2488C9.96538 11.4828 10.3614 12.1048 10.7087 12.6314C11.5254 13.8662 11.6989 14.1526 12.0181 14.7865C12.3039 15.3527 12.4738 15.7709 12.6399 16.312C12.7578 16.6932 12.8958 17.3446 12.895 17.5196L12.8944 17.6301L12.0411 17.6259L11.1847 17.6217L11.1192 17.2009C11.0509 16.7371 10.9307 16.2177 10.8007 15.8027L10.716 15.5352L10.2385 15.2658C8.04367 14.0273 6.37749 12.647 5.3317 11.1992C3.50844 8.67019 3.4552 5.74462 5.19141 3.4724C5.43236 3.16048 5.95988 2.62281 6.27727 2.37266C7.20786 1.6405 8.24142 1.19432 9.52251 0.973433C9.8113 0.922661 10.0447 0.908453 10.5972 0.905013C10.984 0.900763 11.3431 0.905587 11.3953 0.911981ZM9.83449 2.46063C9.25975 2.60824 8.84419 2.8487 8.42158 3.27331C8.02673 3.67043 7.72631 4.21841 7.59467 4.77336C7.53196 5.04318 7.50006 5.91786 7.54491 6.16364C7.64361 6.69516 7.88016 7.28261 8.17877 7.73529C8.37377 8.034 8.96637 8.62625 9.28762 8.84269C9.73737 9.14571 10.2214 9.34145 10.8684 9.48888C11.1474 9.55164 11.2855 9.55845 12.8109 9.58432C14.4899 9.61401 15.5673 9.60086 15.8961 9.54107C16.3877 9.45139 16.8981 9.26356 17.283 9.02909C17.557 8.85853 17.936 8.55342 18.0134 8.43409C18.0659 8.3576 18.0659 8.35453 17.968 8.30494C17.9037 8.27086 17.7656 8.24563 17.5907 8.23864C17.3391 8.22513 17.2776 8.23404 16.9303 8.33364C15.6976 8.6929 15.3384 8.7157 14.2005 8.51676C13.7436 8.43472 13.5349 8.41528 12.8475 8.39043C12.16 8.36559 11.9974 8.35252 11.7889 8.29318C11.2402 8.14009 10.7779 7.90147 10.4356 7.59898C10.1116 7.30579 9.69432 6.64686 9.69542 6.42278C9.69657 6.18643 9.86625 6.01229 10.0995 6.01343C10.296 6.01439 10.3968 6.1039 10.561 6.42394C10.7343 6.76858 11.11 7.15104 11.456 7.33077C11.8846 7.55387 12.0778 7.59165 13.0047 7.62381C13.6922 7.64865 13.8855 7.66801 14.2627 7.74046C14.6307 7.81285 14.7933 7.82593 15.2138 7.83105C15.7816 7.83383 15.7939 7.83082 16.6394 7.56175C17.2205 7.37428 17.5247 7.30823 17.804 7.3096C17.9728 7.31042 18.3532 7.36446 18.5616 7.42073C18.6322 7.43643 18.6506 7.42117 18.7497 7.24669C19.0036 6.79977 19.1192 6.3798 19.1217 5.8764C19.1236 5.47737 19.0757 5.23156 18.9452 4.93932C18.684 4.35789 18.2379 3.94746 17.5792 3.69253C17.2911 3.58369 16.9078 3.50815 16.4475 3.47827C16.0425 3.45481 15.8494 3.39247 15.4453 3.16949C14.8055 2.81643 14.2692 2.63885 13.726 2.60243L13.4284 2.58256L13.5468 2.84098C13.6683 3.10249 13.7957 3.42235 13.7773 3.42226C13.7711 3.42223 13.6762 3.36651 13.563 3.29536C13.0152 2.9581 12.2893 2.63838 11.765 2.50383C11.3083 2.38495 11.1518 2.36884 10.6207 2.37546C10.2155 2.38269 10.0773 2.39736 9.83449 2.46063ZM6.32469 4.60447L6.0627 4.8242L5.8975 5.33909C5.80711 5.62105 5.66066 6.06542 5.57651 6.32592L5.42074 6.79481L5.53047 6.95496C5.58837 7.04119 5.7836 7.29078 5.96057 7.50959C6.23823 7.85167 6.28087 7.91941 6.26519 7.98686C6.25271 8.02977 6.15006 8.30553 6.03201 8.5935L5.82069 9.1235L5.94904 9.24077C6.01627 9.30249 6.41099 9.5592 6.82416 9.80985C7.23733 10.0605 7.59845 10.2833 7.62904 10.3049C7.67492 10.3389 7.69289 10.4311 7.72797 10.7904C7.77461 11.2971 7.82473 11.7179 7.8339 11.7271C7.84001 11.7333 8.05733 11.8602 8.32055 12.015C8.5838 12.1667 8.83478 12.3152 8.8776 12.3461C8.96328 12.4018 8.99415 12.3651 8.91771 12.3034C8.84435 12.2416 8.62524 11.8507 8.50383 11.5708C8.37334 11.2632 8.09517 10.3962 7.98676 9.96901L7.91448 9.68319L7.76143 9.59649C7.67877 9.55004 7.43697 9.40766 7.22578 9.28385C7.01458 9.16003 6.80647 9.03316 6.76055 9.00838C6.71157 8.98052 6.67494 8.93736 6.67508 8.90974C6.6753 8.86369 6.93349 8.16509 7.09191 7.78217L7.17268 7.58611L7.06047 7.30623C6.99983 7.15245 6.92718 6.94337 6.90005 6.84194L6.84877 6.65751L6.65042 7.04638C6.54192 7.26379 6.44591 7.43829 6.43672 7.43517C6.42137 7.4351 6.33288 7.32723 5.98514 6.87737L5.82653 6.67094L6.15498 6.04328C6.44315 5.48909 6.49882 5.40341 6.6097 5.32722C6.71439 5.2602 6.73913 5.22348 6.74876 5.13758C6.77487 4.81847 6.87827 4.38924 7.02435 4.01853C7.03679 3.98483 6.94436 4.05498 6.81794 4.171C6.69151 4.2901 6.46954 4.48547 6.32469 4.60447ZM17.3617 9.86747C16.8079 10.141 16.1072 10.3034 15.3581 10.3304L14.8822 10.3496L15.0868 10.5808C15.1967 10.7072 15.4224 10.9937 15.5871 11.2186C15.7517 11.4404 15.892 11.6253 15.9013 11.6253C15.9104 11.6285 15.9414 11.5672 15.9756 11.4906C16.0129 11.3987 16.0382 11.2392 16.0515 11.0275C16.0718 10.6408 16.0102 10.6866 16.7725 10.4785L17.3134 10.3338L17.4805 10.0584C17.66 9.75842 17.6724 9.73392 17.6479 9.7338C17.6387 9.73376 17.5094 9.79452 17.3617 9.86747Z" fill="#7D848D"/>
<path d="M12.1597 3.53825C12.5399 3.61992 12.864 3.88242 13.0311 4.24237C13.1192 4.43005 13.1282 4.47614 13.1269 4.74011C13.1227 4.96724 13.1099 5.06848 13.054 5.2002C12.9546 5.44835 12.7201 5.69584 12.4678 5.81739C12.277 5.91161 12.2432 5.91759 11.9393 5.9161C11.6416 5.91465 11.6017 5.90831 11.418 5.8184C11.1393 5.68198 10.9499 5.50301 10.8314 5.25994C10.7462 5.08763 10.7312 5.01695 10.7232 4.77749C10.7125 4.4582 10.7687 4.25895 10.9449 4.01424C11.2137 3.64107 11.7181 3.44401 12.1597 3.53825ZM11.6841 4.12529C11.4127 4.39102 11.5917 4.8247 11.9692 4.82655C12.2209 4.82778 12.4059 4.65678 12.4071 4.42043C12.4084 4.15952 12.2219 3.98979 11.9548 4.0069C11.8166 4.01543 11.7736 4.03364 11.6841 4.12529Z" fill="#7D848D"/>
<path d="M18.3527 4.85854C18.5147 4.9944 18.5837 5.33239 18.5056 5.60827C18.4213 5.90254 18.1384 5.99938 17.9398 5.79889C17.6405 5.49661 17.7974 4.79137 18.1627 4.79622C18.2333 4.79964 18.3099 4.8215 18.3527 4.85854Z" fill="#7D848D"/>
<path d="M15.7239 4.86503C15.8552 5.00687 15.8824 5.09295 15.8812 5.33544C15.8833 5.53191 15.8708 5.5871 15.7965 5.70952C15.5675 6.09517 15.1328 5.84441 15.1323 5.32565C15.134 4.988 15.2854 4.78001 15.5248 4.78118C15.6169 4.78163 15.6628 4.80334 15.7239 4.86503Z" fill="#7D848D"/>
<path d="M22.7394 14.5159C23.147 14.6499 23.4433 14.946 23.6222 15.3981L23.695 15.5826L23.6821 20.1071C23.6671 25.0522 23.6707 24.9478 23.4909 25.3122C23.2243 25.8481 22.615 26.1613 22.0292 26.0602C21.4924 25.9686 21.1012 25.6382 20.9348 25.137C20.8712 24.9495 20.8714 24.9249 20.894 20.2869C20.9141 16.1768 20.923 15.6059 20.9668 15.4465C21.0887 14.9836 21.4558 14.6171 21.9168 14.4965C22.1381 14.4393 22.5279 14.4473 22.7394 14.5159Z" fill="#7D848D"/>
<path d="M6.59609 14.4059C7.0192 14.5062 7.37363 14.8425 7.53717 15.2976L7.60986 15.4975L7.58677 20.2245L7.56368 24.9515L7.49222 25.1262C7.27165 25.6653 6.80047 25.9792 6.20801 25.9855C5.86421 25.9869 5.59757 25.9027 5.34066 25.7111C5.01341 25.4671 4.84303 25.1562 4.78693 24.7016C4.74562 24.3607 4.78706 15.8766 4.83151 15.576C4.87268 15.3153 5.02471 14.9845 5.19446 14.795C5.34876 14.6269 5.60431 14.4686 5.8256 14.4113C6.00386 14.3661 6.4152 14.362 6.59609 14.4059Z" fill="#7D848D"/>
<path d="M24.9114 15.5078C25.2701 15.6017 25.5635 15.8487 25.7429 16.2118C25.8462 16.421 25.9004 16.6423 25.9626 17.0969C26.0101 17.4255 26.0145 17.7816 25.9993 20.2741C25.9873 22.7205 25.9761 23.1317 25.9316 23.4538C25.8426 24.0704 25.7091 24.3859 25.413 24.6791C25.1261 24.9632 24.8371 25.0569 24.2447 25.054L23.8764 25.0522L23.8998 20.2485L23.9233 15.4447L24.3131 15.4497C24.5832 15.451 24.7704 15.4703 24.9114 15.5078Z" fill="#7D848D"/>
<path d="M4.59378 20.1493L4.57031 24.9531L4.18355 24.9512C3.59114 24.9483 3.27242 24.8424 2.97919 24.5463C2.7165 24.281 2.59227 23.9489 2.50043 23.2701C2.45901 22.9507 2.45181 22.5393 2.46354 20.1389C2.47428 17.3119 2.48469 17.0664 2.60094 16.5175C2.69833 16.0606 2.99815 15.6385 3.33349 15.4836C3.57345 15.3742 3.7762 15.3415 4.21821 15.3436L4.61725 15.3456L4.59378 20.1493Z" fill="#7D848D"/>
<path d="M20.1909 19.5975L20.1836 21.1016L14.2318 21.0725L8.28006 21.0403L8.26197 20.9727C8.25294 20.9358 8.24703 20.2605 8.2509 19.4686L8.2579 18.0351L14.2281 18.0643L20.1983 18.0934L20.1909 19.5975Z" fill="#7D848D"/>
<path d="M1.97183 18.1535L2.11912 18.1634L2.11033 19.9622L2.10156 21.7578L1.60129 21.7431C1.11943 21.7315 1.09795 21.7284 0.901955 21.6353C0.653895 21.5175 0.49506 21.3571 0.388722 21.1325C0.309754 20.9602 0.309784 20.954 0.304819 20.0853C0.298209 18.925 0.329639 18.7747 0.650397 18.4632C0.875536 18.2464 1.0539 18.1797 1.46839 18.1602C1.66488 18.152 1.89205 18.147 1.97183 18.1535Z" fill="#7D848D"/>
<path d="M27.1955 18.329C27.5266 18.4196 27.7467 18.6079 27.8955 18.9279L27.9745 19.0971L27.9696 20.0947C27.9649 21.0616 27.9617 21.0953 27.8965 21.2393C27.6794 21.7017 27.3562 21.872 26.6932 21.8688L26.3494 21.8671L26.3582 20.0715L26.367 18.2758L26.6954 18.2805C26.8827 18.2814 27.1005 18.3039 27.1955 18.329Z" fill="#7D848D"/>
<path d="M17.9853 21.6184C17.9727 21.6736 17.9135 21.8605 17.8543 22.0352C17.7951 22.2099 17.7514 22.357 17.7576 22.3601C17.7606 22.3663 17.8894 22.3945 18.0427 22.4229C18.9627 22.6085 19.7281 23.0113 20.094 23.5103C20.3228 23.8184 20.3681 23.969 20.3659 24.4203C20.364 24.8009 20.364 24.8039 20.2493 25.0336C19.775 25.9737 18.6744 26.3336 15.8128 26.4884C14.8272 26.5388 12.1813 26.5167 11.4388 26.4486C10.1256 26.3317 9.33143 26.159 8.65765 25.8457C8.52902 25.7867 8.37595 25.7031 8.3209 25.6599L8.21999 25.5826L8.22642 24.2658L8.23287 22.9459L8.39293 22.8546C8.72537 22.6659 9.38641 22.4451 9.92409 22.3403L10.0931 22.3073L10.2912 21.9645C10.3996 21.7747 10.5079 21.5911 10.5327 21.5513C10.5729 21.4839 10.576 21.484 11.3894 21.4879L12.2028 21.4919L12.1841 21.5593C12.0874 21.872 11.7589 22.5027 11.4683 22.931C10.8035 23.9193 10.073 24.5296 9.07038 24.9299L8.82741 25.0269L8.90695 25.0826C9.13949 25.2341 10.0313 25.5209 10.5619 25.6125C11.2888 25.7357 12.1882 25.734 12.858 25.6083C13.5769 25.4737 14.2415 25.1669 14.867 24.6819C14.9008 24.6575 14.9194 24.63 14.9133 24.6238C14.9041 24.6146 14.7752 24.6201 14.6247 24.6347C14.0596 24.6903 13.3784 24.647 12.8879 24.5188C12.3943 24.3905 11.6407 24.0768 11.5032 23.9411C11.3566 23.793 11.4069 23.5661 11.6037 23.4873C11.6806 23.4539 11.7174 23.4602 11.8889 23.5316C12.4556 23.7738 12.7283 23.8734 13.0472 23.9578C13.6787 24.1205 14.4583 24.1274 15.2081 23.9776L15.5798 23.9057L15.7464 23.7285C15.9563 23.5024 16.1386 23.2639 16.284 23.0282C16.4263 22.7956 16.7271 22.174 16.7584 22.0544C16.7803 21.9716 16.7742 21.9655 16.7004 21.9866C15.8983 22.1822 14.5015 22.203 13.5477 22.0326C13.0171 21.9379 12.7535 21.8599 12.6895 21.7767C12.6163 21.6842 12.6136 21.6075 12.6783 21.5433C12.7215 21.5006 13.007 21.4958 15.3675 21.5074L18.0072 21.5203L17.9853 21.6184ZM18.1548 23.3689C18.289 23.5384 18.365 23.6891 18.3523 23.7658C18.346 23.8088 18.2536 23.8789 18.0781 23.9793C17.8226 24.1254 17.8103 24.1284 17.6785 24.1002C17.6049 24.0814 17.4668 24.0654 17.3717 24.0649L17.2029 24.0641L17.1148 23.8764C17.0266 23.6918 17.0236 23.6887 16.9772 23.7591C16.8752 23.9121 16.557 24.3188 16.4243 24.4655L16.2854 24.6183L16.5004 24.5978C16.6171 24.5892 16.7491 24.5745 16.7952 24.5655C16.8628 24.5536 16.8904 24.569 16.9665 24.683C17.0153 24.7569 17.061 24.8369 17.07 24.8615C17.0913 24.9169 17.1037 24.8924 17.1568 24.6901L17.1881 24.5644L17.4676 24.5442L17.747 24.5241L17.9797 24.6511C18.2858 24.8184 18.3316 24.8616 18.3097 24.9627L18.2939 25.0425L18.4755 24.9482C18.577 24.8965 18.6602 24.8386 18.6603 24.8171C18.6605 24.7741 18.3061 24.444 18.2081 24.3974C18.1713 24.3819 18.1407 24.3572 18.1408 24.348C18.1409 24.3234 18.6303 24.0496 18.7533 24.0011C18.8056 23.9829 18.8487 23.9555 18.8488 23.9401C18.849 23.8941 18.6752 23.66 18.553 23.5427C18.446 23.4378 18.0849 23.2089 18.0572 23.2272C18.0511 23.2333 18.0937 23.2949 18.1548 23.3689Z" fill="#7D848D"/>
</svg>
